<svg width="153" height="87" viewBox="0 0 153 87" fill="none" xmlns="http://www.w3.org/2000/svg">
<path d="M105.058 57.4104L124.199 29.6994C125.346 27.9763 125.579 24.3295 123.7 23.021C121.883 21.8408 118.609 23.5522 117.462 25.2752L99.8888 53.9708L105.058 57.4104Z" fill="url(#paint0_linear_302_2)"/>
<path d="M112.475 36.2874C111.462 36.1397 92.5717 34.4206 92.5717 34.4206L88.4973 39.5768L106.992 45.0982L112.475 36.2874Z" fill="url(#paint1_linear_302_2)"/>
<path d="M117.049 39.3019C117.604 40.1388 126.823 56.7433 126.823 56.7433L123.687 62.5537L111.161 47.7551L117.049 39.3019Z" fill="url(#paint2_linear_302_2)"/>
<path d="M99.8214 61.9399C99.6257 62.1899 99.2746 62.278 99.0246 62.0824C98.7746 61.8868 98.6865 61.5357 98.7875 61.252L104.264 52.7586C104.459 52.5085 104.81 52.4205 105.06 52.6161C105.31 52.8117 105.398 53.1628 105.297 53.4465L99.8214 61.9399Z" fill="url(#paint3_linear_302_2)"/>
<path d="M105.006 52.1702C104.621 52.3528 95.9321 54.9063 95.9321 54.9063L93.0858 59.0079L100.804 58.8796L105.006 52.1702Z" fill="url(#paint4_linear_302_2)"/>
<path d="M105.277 52.9061C105.236 53.3181 106.386 62.3595 106.386 62.3595L103.789 66.6567L100.792 59.5145L105.277 52.9061Z" fill="url(#paint5_linear_302_2)"/>
<rect x="108" y="45.5218" width="2.06856" height="2.06856" rx="1" transform="rotate(-47.3638 108 45.5218)" fill="url(#paint6_linear_302_2)"/>
<rect x="112" y="39.5218" width="2.06856" height="2.06856" rx="1" transform="rotate(-47.3638 112 39.5218)" fill="url(#paint7_linear_302_2)"/>
<rect x="110" y="42.5218" width="2.06856" height="2.06856" rx="1" transform="rotate(-47.3638 110 42.5218)" fill="url(#paint8_linear_302_2)"/>
<path d="M37.6208 30.64V35.104H28.7408V64H23.2688V35.104H14.3408V30.64H37.6208ZM48.6345 41.392C49.4345 40.048 50.4905 39.008 51.8025 38.272C53.1465 37.504 54.7305 37.12 56.5545 37.12V42.784H55.1625C53.0185 42.784 51.3865 43.328 50.2665 44.416C49.1785 45.504 48.6345 47.392 48.6345 50.08V64H43.1625V37.552H48.6345V41.392ZM72.9124 50.608L81.4564 64H75.2644L69.5524 55.024L64.1764 64H58.4644L67.0084 50.992L58.4644 37.552H64.6564L70.3684 46.528L75.7444 37.552H81.4564L72.9124 50.608Z" fill="url(#paint9_linear_302_2)"/>
<path d="M105.058 57.4104L124.199 29.6994C125.346 27.9763 125.579 24.3295 123.7 23.021C121.883 21.8408 118.609 23.5522 117.462 25.2752L99.8888 53.9708L105.058 57.4104Z" fill="url(#paint10_linear_302_2)"/>
<path d="M112.475 36.2874C111.462 36.1397 92.5717 34.4206 92.5717 34.4206L88.4973 39.5768L106.992 45.0982L112.475 36.2874Z" fill="url(#paint11_linear_302_2)"/>
<path d="M117.049 39.3019C117.604 40.1388 126.823 56.7433 126.823 56.7433L123.687 62.5537L111.161 47.7551L117.049 39.3019Z" fill="url(#paint12_linear_302_2)"/>
<path d="M99.8214 61.9399C99.6257 62.1899 99.2746 62.278 99.0246 62.0824C98.7746 61.8868 98.6865 61.5357 98.7875 61.252L104.264 52.7586C104.459 52.5085 104.81 52.4205 105.06 52.6161C105.31 52.8117 105.398 53.1628 105.297 53.4465L99.8214 61.9399Z" fill="url(#paint13_linear_302_2)"/>
<path d="M105.006 52.1702C104.621 52.3528 95.9321 54.9063 95.9321 54.9063L93.0858 59.0079L100.804 58.8796L105.006 52.1702Z" fill="url(#paint14_linear_302_2)"/>
<path d="M105.277 52.9061C105.236 53.3181 106.386 62.3595 106.386 62.3595L103.789 66.6567L100.792 59.5145L105.277 52.9061Z" fill="url(#paint15_linear_302_2)"/>
<rect x="108" y="45.5218" width="2.06856" height="2.06856" rx="1" transform="rotate(-47.3638 108 45.5218)" fill="url(#paint16_linear_302_2)"/>
<rect x="112" y="39.5218" width="2.06856" height="2.06856" rx="1" transform="rotate(-47.3638 112 39.5218)" fill="url(#paint17_linear_302_2)"/>
<rect x="110" y="42.5218" width="2.06856" height="2.06856" rx="1" transform="rotate(-47.3638 110 42.5218)" fill="url(#paint18_linear_302_2)"/>
<defs>
<linearGradient id="paint0_linear_302_2" x1="119.899" y1="42.1495" x2="105.878" y2="37.1556" gradientUnits="userSpaceOnUse">
<stop stop-color="white"/>
<stop offset="1" stop-color="white" stop-opacity="0.67"/>
</linearGradient>
<linearGradient id="paint1_linear_302_2" x1="110.605" y1="41.5362" x2="90.3667" y2="34.328" gradientUnits="userSpaceOnUse">
<stop stop-color="white"/>
<stop offset="1" stop-color="white" stop-opacity="0.67"/>
</linearGradient>
<linearGradient id="paint2_linear_302_2" x1="127.934" y1="53.6224" x2="111.195" y2="47.6605" gradientUnits="userSpaceOnUse">
<stop stop-color="white"/>
<stop offset="1" stop-color="white" stop-opacity="0.67"/>
</linearGradient>
<linearGradient id="paint3_linear_302_2" x1="103.698" y1="57.9387" x2="100.387" y2="56.7598" gradientUnits="userSpaceOnUse">
<stop stop-color="white"/>
<stop offset="1" stop-color="white" stop-opacity="0.67"/>
</linearGradient>
<linearGradient id="paint4_linear_302_2" x1="103.254" y1="57.0879" x2="94.8373" y2="54.0901" gradientUnits="userSpaceOnUse">
<stop stop-color="white"/>
<stop offset="1" stop-color="white" stop-opacity="0.67"/>
</linearGradient>
<linearGradient id="paint5_linear_302_2" x1="106.992" y1="60.6571" x2="101.128" y2="58.5688" gradientUnits="userSpaceOnUse">
<stop stop-color="white"/>
<stop offset="1" stop-color="white" stop-opacity="0.67"/>
</linearGradient>
<linearGradient id="paint6_linear_302_2" x1="109.034" y1="45.5218" x2="109.034" y2="47.5903" gradientUnits="userSpaceOnUse">
<stop stop-color="#1290EA"/>
<stop offset="1" stop-color="#6B6B6B" stop-opacity="0.86"/>
</linearGradient>
<linearGradient id="paint7_linear_302_2" x1="113.034" y1="39.5218" x2="113.034" y2="41.5903" gradientUnits="userSpaceOnUse">
<stop stop-color="#1290EA"/>
<stop offset="1" stop-color="#6B6B6B" stop-opacity="0.86"/>
</linearGradient>
<linearGradient id="paint8_linear_302_2" x1="111.034" y1="42.5218" x2="111.034" y2="44.5903" gradientUnits="userSpaceOnUse">
<stop stop-color="#1290EA"/>
<stop offset="1" stop-color="#6B6B6B" stop-opacity="0.86"/>
</linearGradient>
<linearGradient id="paint9_linear_302_2" x1="41" y1="11" x2="41" y2="83" gradientUnits="userSpaceOnUse">
<stop stop-color="#0295FF"/>
<stop offset="0.5" stop-color="#00E6F5"/>
<stop offset="0.652777" stop-color="#0094FF"/>
<stop offset="1" stop-color="#1B95EE"/>
</linearGradient>
<linearGradient id="paint10_linear_302_2" x1="119.899" y1="42.1495" x2="105.878" y2="37.1556" gradientUnits="userSpaceOnUse">
<stop stop-color="white"/>
<stop offset="1" stop-color="white" stop-opacity="0.67"/>
</linearGradient>
<linearGradient id="paint11_linear_302_2" x1="110.605" y1="41.5362" x2="90.3667" y2="34.328" gradientUnits="userSpaceOnUse">
<stop stop-color="white"/>
<stop offset="1" stop-color="white" stop-opacity="0.67"/>
</linearGradient>
<linearGradient id="paint12_linear_302_2" x1="127.934" y1="53.6224" x2="111.195" y2="47.6605" gradientUnits="userSpaceOnUse">
<stop stop-color="white"/>
<stop offset="1" stop-color="white" stop-opacity="0.67"/>
</linearGradient>
<linearGradient id="paint13_linear_302_2" x1="103.698" y1="57.9387" x2="100.387" y2="56.7598" gradientUnits="userSpaceOnUse">
<stop stop-color="white"/>
<stop offset="1" stop-color="white" stop-opacity="0.67"/>
</linearGradient>
<linearGradient id="paint14_linear_302_2" x1="103.254" y1="57.0879" x2="94.8373" y2="54.0901" gradientUnits="userSpaceOnUse">
<stop stop-color="white"/>
<stop offset="1" stop-color="white" stop-opacity="0.67"/>
</linearGradient>
<linearGradient id="paint15_linear_302_2" x1="106.992" y1="60.6571" x2="101.128" y2="58.5688" gradientUnits="userSpaceOnUse">
<stop stop-color="white"/>
<stop offset="1" stop-color="white" stop-opacity="0.67"/>
</linearGradient>
<linearGradient id="paint16_linear_302_2" x1="109.034" y1="45.5218" x2="109.034" y2="47.5903" gradientUnits="userSpaceOnUse">
<stop stop-color="#1290EA"/>
<stop offset="1" stop-color="#6B6B6B" stop-opacity="0.86"/>
</linearGradient>
<linearGradient id="paint17_linear_302_2" x1="113.034" y1="39.5218" x2="113.034" y2="41.5903" gradientUnits="userSpaceOnUse">
<stop stop-color="#1290EA"/>
<stop offset="1" stop-color="#6B6B6B" stop-opacity="0.86"/>
</linearGradient>
<linearGradient id="paint18_linear_302_2" x1="111.034" y1="42.5218" x2="111.034" y2="44.5903" gradientUnits="userSpaceOnUse">
<stop stop-color="#1290EA"/>
<stop offset="1" stop-color="#6B6B6B" stop-opacity="0.86"/>
</linearGradient>
</defs>
</svg>
