<svg width="309" height="87" viewBox="0 0 309 87" fill="none" xmlns="http://www.w3.org/2000/svg">
<path d="M165.82 33.6719C167.836 33.6719 168.844 34.1953 168.844 35.2422C168.844 36.3672 167.898 36.9297 166.008 36.9297H158.602V50.0547C158.602 52.4141 159.328 53.9688 160.781 54.7188C161.281 54.9844 161.852 55.1172 162.492 55.1172C164.039 55.1172 165.406 54.3281 166.594 52.75C167.109 52.0625 167.734 51.7188 168.469 51.7188C168.703 51.7188 168.898 51.8281 169.055 52.0469C169.211 52.25 169.289 52.4531 169.289 52.6562C169.289 53.2969 168.992 54.0156 168.398 54.8125C166.539 57.3125 164.055 58.5625 160.945 58.5625C157.07 58.5625 154.617 57.2656 153.586 54.6719C153.211 53.7344 153.023 52.5859 153.023 51.2266V36.9297H150.68C149.039 36.9297 148.219 36.4219 148.219 35.4062C148.219 35 148.414 34.6484 148.805 34.3516C149.211 34.0391 149.766 33.8047 150.469 33.6484C151.188 33.4766 151.852 33.1719 152.461 32.7344C153.086 32.2969 153.609 31.7344 154.031 31.0469C154.797 29.8438 155.375 27.9219 155.766 25.2812C156.031 23.625 156.57 22.7969 157.383 22.7969C158.195 22.7969 158.602 23.625 158.602 25.2812V33.8359L161.016 33.7656C162.891 33.7031 164.492 33.6719 165.82 33.6719ZM175.688 58.3516C174.109 58.3516 173.32 57.875 173.32 56.9219C173.32 56.6719 173.398 56.4453 173.555 56.2422C173.727 56.0234 173.945 55.9141 174.211 55.9141L175.383 56.0781C176.273 56.0781 176.898 55.6562 177.258 54.8125C177.648 53.9062 177.844 52.2969 177.844 49.9844V42.8359C177.844 40.5547 177.656 39.0078 177.281 38.1953C176.906 37.4297 176.461 36.9531 175.945 36.7656C175.43 36.5781 174.961 36.4297 174.539 36.3203C174.133 36.1953 173.773 36.0547 173.461 35.8984C173.164 35.7422 173.016 35.5625 173.016 35.3594C173.016 35.1406 173.039 34.9609 173.086 34.8203C173.133 34.6797 173.211 34.5469 173.32 34.4219C173.586 34.125 173.992 33.9766 174.539 33.9766L177.984 34.2578L181.523 33.9766C182.758 33.9766 183.375 34.7891 183.375 36.4141V38.0547C184.844 35.8047 186.766 34.3438 189.141 33.6719C189.922 33.4375 190.734 33.3203 191.578 33.3203C194.484 33.3203 195.938 34.25 195.938 36.1094L195.891 41.8984C195.891 42.1172 195.82 42.3047 195.68 42.4609C195.555 42.6016 195.406 42.6719 195.234 42.6719C194.828 42.6719 194.531 42.3125 194.344 41.5938C194.156 40.875 193.891 40.2656 193.547 39.7656C193.203 39.25 192.812 38.8438 192.375 38.5469C191.562 38.0312 190.695 37.7734 189.773 37.7734C188.867 37.7734 188.102 37.9219 187.477 38.2188C186.852 38.5156 186.273 38.8906 185.742 39.3438C184.711 40.25 183.922 41.2812 183.375 42.4375V49.9844C183.375 52.5781 183.594 54.2812 184.031 55.0938C184.391 55.75 185.117 56.0781 186.211 56.0781L187.828 55.8906C188.094 55.8906 188.305 56 188.461 56.2188C188.617 56.4375 188.695 56.6484 188.695 56.8516C188.695 57.0547 188.625 57.2422 188.484 57.4141C188.359 57.5859 188.188 57.7422 187.969 57.8828C187.266 58.3203 186.172 58.4531 184.688 58.2812C184.328 58.25 183.969 58.2188 183.609 58.1875C181.812 57.9844 180.469 57.9219 179.578 58C178.688 58.0781 178.055 58.1328 177.68 58.1641C177.305 58.2109 176.961 58.25 176.648 58.2812C176.336 58.3281 176.016 58.3516 175.688 58.3516ZM220.406 58.1406C219.5 58.1406 218.961 57.3203 218.789 55.6797C217.43 57.0391 215.609 57.9375 213.328 58.375C212.625 58.5 211.68 58.5625 210.492 58.5625C209.305 58.5625 208.086 58.3828 206.836 58.0234C205.586 57.6641 204.547 57.1562 203.719 56.5C202.047 55.1719 201.211 53.3203 201.211 50.9453C201.211 48.3672 202.297 46.3984 204.469 45.0391C206.328 43.8828 208.656 43.3047 211.453 43.3047C214.125 43.3047 216.555 43.8828 218.742 45.0391V42.3672C218.742 39.2891 217.312 37.4688 214.453 36.9062C213.578 36.7344 212.727 36.6484 211.898 36.6484C211.086 36.6484 210.398 36.6875 209.836 36.7656C209.273 36.8281 208.734 36.9688 208.219 37.1875C207.141 37.6406 206.117 38.5234 205.148 39.8359C204.414 40.8359 203.82 41.3359 203.367 41.3359C202.914 41.3359 202.688 41.1016 202.688 40.6328C202.688 40.3516 202.781 39.8984 202.969 39.2734C203.375 37.9922 203.578 36.3438 203.578 34.3281C203.578 33.5469 203.875 33.1562 204.469 33.1562C205.094 33.1562 205.633 33.2969 206.086 33.5781C206.711 33.9688 207.07 34.1641 207.164 34.1641C209.414 33.6016 211.508 33.3203 213.445 33.3203C215.383 33.3203 217.086 33.5781 218.555 34.0938C220.039 34.5938 221.203 35.2812 222.047 36.1562C223.484 37.6406 224.203 39.8984 224.203 42.9297V49.7031C224.203 52.5 224.344 54.1953 224.625 54.7891C224.906 55.3672 225.211 55.7109 225.539 55.8203C225.883 55.9141 226.305 55.9609 226.805 55.9609L228.141 55.7734C228.406 55.7734 228.617 55.8906 228.773 56.125C228.945 56.3438 229.031 56.5391 229.031 56.7109C229.031 56.8672 228.992 57.0312 228.914 57.2031C228.852 57.375 228.734 57.5312 228.562 57.6719C228.125 58.0312 227.5 58.2109 226.688 58.2109L223.078 58L220.406 58.1406ZM218.742 47.9922C216.898 46.8359 214.93 46.2578 212.836 46.2578C209.914 46.2578 208.016 47.0938 207.141 48.7656C206.875 49.2656 206.742 49.8203 206.742 50.4297C206.742 52.0391 207.273 53.25 208.336 54.0625C209.414 54.8594 210.922 55.2578 212.859 55.2578C215.234 55.2578 217.195 54.3203 218.742 52.4453V47.9922ZM261.398 36.3203L260.086 36.1562C259.461 36.1562 258.914 36.4219 258.445 36.9531C257.586 37.875 256.758 39.1641 255.961 40.8203L247.898 57.25C247.43 58.2969 246.938 58.8203 246.422 58.8203C245.922 58.8203 245.414 58.3672 244.898 57.4609L234.141 38.7109C233.344 37.3828 232.766 36.625 232.406 36.4375C232.047 36.25 231.719 36.1562 231.422 36.1562L230.086 36.3203C229.82 36.3203 229.609 36.2109 229.453 35.9922C229.281 35.7734 229.195 35.5312 229.195 35.2656C229.195 35 229.383 34.7031 229.758 34.375C230.148 34.0469 230.742 33.8828 231.539 33.8828C232.336 33.8828 233.125 33.9453 233.906 34.0703C234.703 34.1953 235.539 34.2578 236.414 34.2578L242.461 33.8828C243.586 33.8828 244.312 34.2188 244.641 34.8906C244.719 35.0625 244.758 35.2344 244.758 35.4062C244.758 35.5781 244.68 35.7734 244.523 35.9922C244.383 36.2109 244.164 36.3203 243.867 36.3203L242.086 36.1094C240.836 36.1094 240.211 36.5 240.211 37.2812C240.211 38.0781 240.516 38.9688 241.125 39.9531C242 41.5781 242.914 43.1562 243.867 44.6875C244.836 46.2188 245.766 47.7969 246.656 49.4219C247.031 50.0781 247.352 50.4062 247.617 50.4062C247.773 50.4062 247.984 50.1094 248.25 49.5156L251.93 41.8047C252.742 40.0547 253.188 38.9219 253.266 38.4062C253.344 37.8906 253.383 37.5156 253.383 37.2812C253.383 36.5 252.836 36.1094 251.742 36.1094L249.586 36.3203C249.305 36.3203 249.086 36.2109 248.93 35.9922C248.773 35.7734 248.695 35.5234 248.695 35.2422C248.695 34.9609 248.883 34.6641 249.258 34.3516C249.633 34.0391 250.25 33.8828 251.109 33.8828C251.969 33.8828 252.828 33.9453 253.688 34.0703C254.547 34.1953 255.344 34.2578 256.078 34.2578C256.828 34.2578 257.539 34.1953 258.211 34.0703C258.898 33.9453 259.57 33.8828 260.227 33.8828C260.898 33.8828 261.406 34.0469 261.75 34.375C262.094 34.7031 262.266 35 262.266 35.2656C262.266 35.5312 262.18 35.7734 262.008 35.9922C261.852 36.2109 261.648 36.3203 261.398 36.3203ZM267.773 55.2344C266.555 54.1406 265.586 52.8125 264.867 51.25C264.164 49.6875 263.812 48 263.812 46.1875C263.812 44.375 264.133 42.7109 264.773 41.1953C265.414 39.6797 266.32 38.3438 267.492 37.1875C270.086 34.6094 273.305 33.3203 277.148 33.3203C279.711 33.3203 281.953 33.9844 283.875 35.3125C285.266 36.2656 286.422 37.5156 287.344 39.0625C287.984 40.1875 288.305 40.9062 288.305 41.2188C288.305 41.5156 288.289 41.75 288.258 41.9219C288.242 42.0781 288.195 42.2344 288.117 42.3906C287.945 42.7656 287.617 43.0391 287.133 43.2109C283.148 44.6641 278.719 45.9688 273.844 47.125L269.742 48.1094C270.273 50.3906 271.453 52.1562 273.281 53.4062C274.891 54.5 276.789 55.0469 278.977 55.0469C280.867 55.0469 282.602 54.4375 284.18 53.2188C284.68 52.8438 285.07 52.4531 285.352 52.0469C285.836 51.3281 286.352 50.9688 286.898 50.9688C287.242 50.9688 287.539 51.25 287.789 51.8125C287.852 51.9531 287.883 52.0859 287.883 52.2109C287.883 52.8047 287.578 53.5 286.969 54.2969C285.891 55.7188 284.508 56.7891 282.82 57.5078C281.133 58.2109 279.32 58.5625 277.383 58.5625C275.461 58.5625 273.68 58.2812 272.039 57.7188C270.414 57.1406 268.992 56.3125 267.773 55.2344ZM269.414 45.1562L276.094 43.4219C280.078 42.3594 282.156 41.6875 282.328 41.4062C282.375 41.3125 282.398 41.1328 282.398 40.8672C282.398 40.5859 282.289 40.2031 282.07 39.7188C281.852 39.2188 281.516 38.7578 281.062 38.3359C280.016 37.3672 278.656 36.8828 276.984 36.8828C275.344 36.8828 273.797 37.3516 272.344 38.2891C270.375 39.5703 269.391 41.5859 269.391 44.3359V44.7344C269.391 44.875 269.398 45.0156 269.414 45.1562ZM304.922 56.0781L306.141 55.9141C306.406 55.9141 306.617 56.0234 306.773 56.2422C306.93 56.4609 307.008 56.6641 307.008 56.8516C307.008 57.0391 306.969 57.2188 306.891 57.3906C306.828 57.5469 306.711 57.6953 306.539 57.8359C305.977 58.3047 304.969 58.4531 303.516 58.2812L301.336 58.0469C300.961 58.0156 300.398 58 299.648 58C298.914 58 298.102 58.0547 297.211 58.1641C296.32 58.2891 295.617 58.3516 295.102 58.3516C294.586 58.3516 294.164 58.2969 293.836 58.1875C293.523 58.0938 293.281 57.9766 293.109 57.8359C292.797 57.6016 292.641 57.3281 292.641 57.0156C292.641 56.7031 292.719 56.4453 292.875 56.2422C293.047 56.0234 293.266 55.9141 293.531 55.9141L294.773 56.0781C295.695 56.0781 296.312 55.6562 296.625 54.8125C296.938 54.0312 297.094 52.4219 297.094 49.9844V26.4062C297.094 23.7188 296.898 22.0547 296.508 21.4141C296.133 20.7734 295.688 20.3516 295.172 20.1484C294.656 19.9453 294.109 19.8125 293.531 19.75C292.375 19.6562 291.797 19.2656 291.797 18.5781C291.797 18.3594 291.914 18.125 292.148 17.875C292.398 17.625 292.734 17.5 293.156 17.5C293.578 17.5 293.945 17.5156 294.258 17.5469L295.219 17.6406C296.234 17.7344 297.016 17.7812 297.562 17.7812L301.148 17.4531C301.742 17.4531 302.117 17.5859 302.273 17.8516C302.523 18.3203 302.648 19.2031 302.648 20.5V49.9844C302.648 52.4844 302.789 54.0547 303.07 54.6953C303.352 55.3359 303.633 55.7266 303.914 55.8672C304.195 56.0078 304.531 56.0781 304.922 56.0781Z" fill="url(#paint0_linear_314_24)"/>
<path d="M1.71094 29.5547C1.33594 29.5547 1.14844 29.2812 1.14844 28.7344C1.14844 28.1875 1.17969 27.6875 1.24219 27.2344C1.32031 26.7812 1.41406 26.3516 1.52344 25.9453C1.63281 25.5391 1.75781 25.1406 1.89844 24.75L2.34375 23.5312C2.71875 22.4688 2.97656 21.5156 3.11719 20.6719C3.25781 19.8281 3.40625 19.3281 3.5625 19.1719C3.71875 19 3.89062 18.9141 4.07812 18.9141C4.39062 18.9141 4.79688 19.2422 5.29688 19.8984C5.54688 20.1953 5.91406 20.3594 6.39844 20.3906C6.89844 20.4062 7.375 20.4141 7.82812 20.4141H31.5469C32.5312 20.4141 33.2734 20.2422 33.7734 19.8984C34.2734 19.5547 34.6172 19.3047 34.8047 19.1484C34.9922 18.9922 35.1484 18.9141 35.2734 18.9141C35.3984 18.9141 35.5078 18.9219 35.6016 18.9375C35.7109 18.9531 35.8125 18.9922 35.9062 19.0547C36.1719 19.2109 36.1875 19.5625 35.9531 20.1094C35.7344 20.6406 35.4844 21.3281 35.2031 22.1719C34.9219 23 34.6641 23.8125 34.4297 24.6094C34.0078 26.0625 33.7109 27.1875 33.5391 27.9844C33.3203 29.0781 33.0156 29.625 32.625 29.625C32.2188 29.625 31.9688 29.3828 31.875 28.8984C31.7969 28.3984 31.7031 27.9609 31.5938 27.5859C31.4844 27.1953 31.3438 26.8438 31.1719 26.5312C30.1094 24.6562 26.8125 23.7188 21.2812 23.7188V49.125C21.2812 51.1875 21.4062 52.5625 21.6562 53.25C21.9219 53.9375 22.2266 54.4141 22.5703 54.6797C22.9141 54.9297 23.2812 55.0547 23.6719 55.0547C24.0781 55.0547 24.375 55.0469 24.5625 55.0312C25.0156 54.9688 25.3438 54.9219 25.5469 54.8906C25.75 54.8594 25.9688 54.8438 26.2031 54.8438C26.4531 54.8438 26.6562 54.9688 26.8125 55.2188C26.9688 55.4531 27.0469 55.6641 27.0469 55.8516C27.0469 56.0234 27 56.1953 26.9062 56.3672C26.8125 56.5391 26.6641 56.6953 26.4609 56.8359C25.9609 57.1797 25.3516 57.3516 24.6328 57.3516C23.9297 57.3516 23.3125 57.3281 22.7812 57.2812C22.2656 57.25 21.7812 57.2188 21.3281 57.1875L19.9688 57.0469C19.5312 57.0156 19.0547 57 18.5391 57C18.0234 57 17.5469 57.0156 17.1094 57.0469L15.75 57.1875C14.3906 57.2969 13.3906 57.3516 12.75 57.3516C12.125 57.3516 11.6562 57.2969 11.3438 57.1875C11.0469 57.0938 10.7969 56.9766 10.5938 56.8359C10.2031 56.5547 10.0078 56.2734 10.0078 55.9922C10.0078 55.7109 10.0859 55.4531 10.2422 55.2188C10.3984 54.9688 10.6016 54.8438 10.8516 54.8438C11.1016 54.8438 11.3047 54.8594 11.4609 54.8906C11.6328 54.9062 11.7969 54.9219 11.9531 54.9375C12.4531 55.0156 12.9141 55.0547 13.3359 55.0547C13.7578 55.0547 14.1406 54.9297 14.4844 54.6797C14.8281 54.4297 15.0938 54.0547 15.2812 53.5547C15.6094 52.6797 15.7734 51.2031 15.7734 49.125V23.6953C12.6797 23.6953 10.4531 23.9141 9.09375 24.3516C8.89062 24.4141 8.5 24.5156 7.92188 24.6562C7.34375 24.7969 6.6875 25.1484 5.95312 25.7109C5.21875 26.2578 4.57031 26.8203 4.00781 27.3984C3.44531 27.9609 2.96875 28.4609 2.57812 28.8984C2.20312 29.3359 1.91406 29.5547 1.71094 29.5547ZM40.9688 57.3516C39.3906 57.3516 38.6016 56.875 38.6016 55.9219C38.6016 55.6719 38.6797 55.4453 38.8359 55.2422C39.0078 55.0234 39.2266 54.9141 39.4922 54.9141L40.6641 55.0781C41.5547 55.0781 42.1797 54.6562 42.5391 53.8125C42.9297 52.9062 43.125 51.2969 43.125 48.9844V41.8359C43.125 39.5547 42.9375 38.0078 42.5625 37.1953C42.1875 36.4297 41.7422 35.9531 41.2266 35.7656C40.7109 35.5781 40.2422 35.4297 39.8203 35.3203C39.4141 35.1953 39.0547 35.0547 38.7422 34.8984C38.4453 34.7422 38.2969 34.5625 38.2969 34.3594C38.2969 34.1406 38.3203 33.9609 38.3672 33.8203C38.4141 33.6797 38.4922 33.5469 38.6016 33.4219C38.8672 33.125 39.2734 32.9766 39.8203 32.9766L43.2656 33.2578L46.8047 32.9766C48.0391 32.9766 48.6562 33.7891 48.6562 35.4141V37.0547C50.125 34.8047 52.0469 33.3438 54.4219 32.6719C55.2031 32.4375 56.0156 32.3203 56.8594 32.3203C59.7656 32.3203 61.2188 33.25 61.2188 35.1094L61.1719 40.8984C61.1719 41.1172 61.1016 41.3047 60.9609 41.4609C60.8359 41.6016 60.6875 41.6719 60.5156 41.6719C60.1094 41.6719 59.8125 41.3125 59.625 40.5938C59.4375 39.875 59.1719 39.2656 58.8281 38.7656C58.4844 38.25 58.0938 37.8438 57.6562 37.5469C56.8438 37.0312 55.9766 36.7734 55.0547 36.7734C54.1484 36.7734 53.3828 36.9219 52.7578 37.2188C52.1328 37.5156 51.5547 37.8906 51.0234 38.3438C49.9922 39.25 49.2031 40.2812 48.6562 41.4375V48.9844C48.6562 51.5781 48.875 53.2812 49.3125 54.0938C49.6719 54.75 50.3984 55.0781 51.4922 55.0781L53.1094 54.8906C53.375 54.8906 53.5859 55 53.7422 55.2188C53.8984 55.4375 53.9766 55.6484 53.9766 55.8516C53.9766 56.0547 53.9062 56.2422 53.7656 56.4141C53.6406 56.5859 53.4688 56.7422 53.25 56.8828C52.5469 57.3203 51.4531 57.4531 49.9688 57.2812C49.6094 57.25 49.25 57.2188 48.8906 57.1875C47.0938 56.9844 45.75 56.9219 44.8594 57C43.9688 57.0781 43.3359 57.1328 42.9609 57.1641C42.5859 57.2109 42.2422 57.25 41.9297 57.2812C41.6172 57.3281 41.2969 57.3516 40.9688 57.3516ZM73.7812 57.375L69.0469 57C68.3594 57 67.6875 57.0625 67.0312 57.1875C66.3906 57.3125 65.7578 57.375 65.1328 57.375C64.5078 57.375 64.0156 57.2188 63.6562 56.9062C63.3125 56.5781 63.1406 56.2812 63.1406 56.0156C63.1406 55.7344 63.2188 55.4844 63.375 55.2656C63.5469 55.0469 63.7734 54.9375 64.0547 54.9375L65.3438 55.1016C66.1875 55.1016 67.5703 54.0391 69.4922 51.9141L75.7031 45.2578L68.9766 37.2188C68.1484 36.2969 67.5312 35.7422 67.125 35.5547C66.5938 35.2891 66.0156 35.1562 65.3906 35.1562L64.0781 35.3203C63.7969 35.3203 63.5703 35.2109 63.3984 34.9922C63.2422 34.7734 63.1641 34.5312 63.1641 34.2656C63.1641 34 63.3516 33.7031 63.7266 33.375C64.1016 33.0469 64.5938 32.8828 65.2031 32.8828C65.8281 32.8828 66.3125 32.8984 66.6562 32.9297L67.7344 33.0234L68.3672 33.0938C68.6797 33.125 68.9844 33.1641 69.2812 33.2109C69.5781 33.2422 70.0469 33.2578 70.6875 33.2578C71.3438 33.2578 72.2266 33.1953 73.3359 33.0703C74.4609 32.9453 75.4062 32.8828 76.1719 32.8828C76.9531 32.8828 77.4922 32.9375 77.7891 33.0469C78.0859 33.1406 78.3203 33.2656 78.4922 33.4219C78.8047 33.7031 78.9609 33.9844 78.9609 34.2656C78.9609 34.9688 78.6719 35.3203 78.0938 35.3203L76.2891 35.1094C75.4922 35.1094 75.0938 35.3203 75.0938 35.7422C75.0938 35.9141 75.1719 36.0781 75.3281 36.2344L80.7422 42.4219L85.0312 38.0391C85.7656 37.3047 86.1875 36.8203 86.2969 36.5859C86.4062 36.3516 86.4609 36.1328 86.4609 35.9297C86.4609 35.7266 86.3828 35.5391 86.2266 35.3672C86.0703 35.1953 85.8359 35.1094 85.5234 35.1094L83.5078 35.3203C83.1172 35.3203 82.8438 35.0938 82.6875 34.6406C82.6406 34.5312 82.6172 34.4141 82.6172 34.2891C82.6172 34.1641 82.6641 34.0156 82.7578 33.8438C82.8516 33.6562 83 33.4922 83.2031 33.3516C83.6719 33.0391 84.3203 32.8828 85.1484 32.8828C85.9766 32.8828 86.7656 32.9453 87.5156 33.0703C88.2656 33.1953 88.9609 33.2578 89.6016 33.2578C90.2422 33.2578 90.8828 33.1953 91.5234 33.0703C92.1797 32.9453 92.8281 32.8828 93.4688 32.8828C94.1094 32.8828 94.6016 33.0469 94.9453 33.375C95.3047 33.7031 95.4844 34 95.4844 34.2656C95.4844 34.5312 95.3984 34.7734 95.2266 34.9922C95.0703 35.2109 94.8516 35.3203 94.5703 35.3203L93.2812 35.1562C92.7656 35.1562 92.2734 35.3125 91.8047 35.625C91.0078 36.1719 89.9609 37.1094 88.6641 38.4375L82.6875 44.6484L89.6719 52.6641C90.875 54.0391 91.8125 54.8281 92.4844 55.0312C92.7344 55.0938 92.9922 55.125 93.2578 55.125L94.5703 54.9609C94.8516 54.9609 95.0703 55.0703 95.2266 55.2891C95.3984 55.5078 95.4844 55.7578 95.4844 56.0391C95.4844 56.3047 95.2969 56.6016 94.9219 56.9297C94.5469 57.2422 93.9688 57.3984 93.1875 57.3984C92.4062 57.3984 91.6328 57.3281 90.8672 57.1875C90.1016 57.0625 89.2656 57 88.3594 57C87.4688 57 86.4688 57.0625 85.3594 57.1875C84.25 57.3281 83.2969 57.3984 82.5 57.3984C81.7031 57.3984 81.1562 57.3438 80.8594 57.2344C80.5625 57.1406 80.3281 57.0156 80.1562 56.8594C79.8438 56.5938 79.6875 56.3203 79.6875 56.0391C79.6875 55.3203 79.9844 54.9609 80.5781 54.9609C80.6875 54.9609 80.7812 54.9766 80.8594 55.0078C80.9375 55.0234 81.0312 55.0469 81.1406 55.0781C81.5 55.1406 81.9922 55.1719 82.6172 55.1719C83.2422 55.1719 83.5547 54.9609 83.5547 54.5391C83.5547 54.1797 83.1172 53.4922 82.2422 52.4766L77.8594 47.4844L75.3281 50.4609C73.5 52.2891 72.5859 53.5312 72.5859 54.1875C72.5859 54.8281 72.8906 55.1484 73.5 55.1484L75.4922 54.9375C75.8828 54.9375 76.1562 55.1641 76.3125 55.6172C76.3594 55.7266 76.3828 55.8906 76.3828 56.1094C76.3828 56.3281 76.1875 56.5938 75.7969 56.9062C75.4062 57.2188 74.7344 57.375 73.7812 57.375Z" fill="white"/>
<path d="M120.058 57.4102L139.199 29.6992C140.346 27.9761 140.579 24.3293 138.7 23.0208C136.883 21.8406 133.609 23.552 132.462 25.275L114.889 53.9706L120.058 57.4102Z" fill="url(#paint1_linear_314_24)"/>
<path d="M127.475 36.2876C126.462 36.1399 107.572 34.4208 107.572 34.4208L103.497 39.577L121.992 45.0984L127.475 36.2876Z" fill="url(#paint2_linear_314_24)"/>
<path d="M132.049 39.302C132.603 40.1389 141.822 56.7435 141.822 56.7435L138.687 62.5538L126.161 47.7553L132.049 39.302Z" fill="url(#paint3_linear_314_24)"/>
<path d="M114.821 61.9398C114.626 62.1898 114.275 62.2779 114.025 62.0823C113.775 61.8866 113.686 61.5356 113.788 61.2518L119.264 52.7585C119.459 52.5084 119.81 52.4203 120.06 52.616C120.31 52.8116 120.398 53.1627 120.297 53.4464L114.821 61.9398Z" fill="url(#paint4_linear_314_24)"/>
<path d="M120.006 52.1704C119.621 52.3531 110.932 54.9066 110.932 54.9066L108.086 59.0081L115.805 58.8799L120.006 52.1704Z" fill="url(#paint5_linear_314_24)"/>
<path d="M120.277 52.9061C120.237 53.3181 121.386 62.3595 121.386 62.3595L118.79 66.6567L115.792 59.5145L120.277 52.9061Z" fill="url(#paint6_linear_314_24)"/>
<rect x="123" y="45.522" width="2.06856" height="2.06856" rx="1" transform="rotate(-47.3638 123 45.522)" fill="url(#paint7_linear_314_24)"/>
<rect x="127" y="39.522" width="2.06856" height="2.06856" rx="1" transform="rotate(-47.3638 127 39.522)" fill="url(#paint8_linear_314_24)"/>
<rect x="125" y="42.522" width="2.06856" height="2.06856" rx="1" transform="rotate(-47.3638 125 42.522)" fill="url(#paint9_linear_314_24)"/>
<defs>
<linearGradient id="paint0_linear_314_24" x1="228" y1="10" x2="228" y2="70" gradientUnits="userSpaceOnUse">
<stop stop-color="white" stop-opacity="0.69"/>
<stop offset="0.213542" stop-color="#FBFDFF"/>
<stop offset="0.564236" stop-color="white"/>
<stop offset="1" stop-color="white"/>
</linearGradient>
<linearGradient id="paint1_linear_314_24" x1="134.9" y1="42.1494" x2="120.878" y2="37.1554" gradientUnits="userSpaceOnUse">
<stop stop-color="white"/>
<stop offset="1" stop-color="white" stop-opacity="0.67"/>
</linearGradient>
<linearGradient id="paint2_linear_314_24" x1="125.605" y1="41.5364" x2="105.367" y2="34.3282" gradientUnits="userSpaceOnUse">
<stop stop-color="white"/>
<stop offset="1" stop-color="white" stop-opacity="0.67"/>
</linearGradient>
<linearGradient id="paint3_linear_314_24" x1="142.934" y1="53.6226" x2="126.195" y2="47.6607" gradientUnits="userSpaceOnUse">
<stop stop-color="white"/>
<stop offset="1" stop-color="white" stop-opacity="0.67"/>
</linearGradient>
<linearGradient id="paint4_linear_314_24" x1="118.698" y1="57.9386" x2="115.387" y2="56.7597" gradientUnits="userSpaceOnUse">
<stop stop-color="white"/>
<stop offset="1" stop-color="white" stop-opacity="0.67"/>
</linearGradient>
<linearGradient id="paint5_linear_314_24" x1="118.254" y1="57.0882" x2="109.837" y2="54.0904" gradientUnits="userSpaceOnUse">
<stop stop-color="white"/>
<stop offset="1" stop-color="white" stop-opacity="0.67"/>
</linearGradient>
<linearGradient id="paint6_linear_314_24" x1="121.992" y1="60.6571" x2="116.129" y2="58.5688" gradientUnits="userSpaceOnUse">
<stop stop-color="white"/>
<stop offset="1" stop-color="white" stop-opacity="0.67"/>
</linearGradient>
<linearGradient id="paint7_linear_314_24" x1="124.034" y1="45.522" x2="124.034" y2="47.5905" gradientUnits="userSpaceOnUse">
<stop stop-color="white"/>
<stop offset="0.579861" stop-color="#00A4A4"/>
</linearGradient>
<linearGradient id="paint8_linear_314_24" x1="128.034" y1="39.522" x2="128.034" y2="41.5905" gradientUnits="userSpaceOnUse">
<stop stop-color="white"/>
<stop offset="0.579861" stop-color="#00A4A4"/>
</linearGradient>
<linearGradient id="paint9_linear_314_24" x1="126.034" y1="42.522" x2="126.034" y2="44.5905" gradientUnits="userSpaceOnUse">
<stop stop-color="white"/>
<stop offset="0.579861" stop-color="#00A4A4"/>
</linearGradient>
</defs>
</svg>
