<svg width="251" height="87" viewBox="0 0 251 87" fill="none" xmlns="http://www.w3.org/2000/svg">
<path d="M121.984 40.016V54.656C121.984 55.648 122.208 56.368 122.656 56.816C123.136 57.232 123.936 57.44 125.056 57.44H128.416V62H124.096C121.632 62 119.744 61.424 118.432 60.272C117.12 59.12 116.464 57.248 116.464 54.656V40.016H113.344V35.552H116.464V28.976H121.984V35.552H128.416V40.016H121.984ZM138.931 39.392C139.731 38.048 140.787 37.008 142.099 36.272C143.443 35.504 145.027 35.12 146.851 35.12V40.784H145.459C143.315 40.784 141.683 41.328 140.563 42.416C139.475 43.504 138.931 45.392 138.931 48.08V62H133.459V35.552H138.931V39.392ZM150.057 48.656C150.057 46 150.601 43.648 151.689 41.6C152.809 39.552 154.313 37.968 156.201 36.848C158.121 35.696 160.233 35.12 162.537 35.12C164.617 35.12 166.425 35.536 167.961 36.368C169.529 37.168 170.777 38.176 171.705 39.392V35.552H177.225V62H171.705V58.064C170.777 59.312 169.513 60.352 167.913 61.184C166.313 62.016 164.489 62.432 162.441 62.432C160.169 62.432 158.089 61.856 156.201 60.704C154.313 59.52 152.809 57.888 151.689 55.808C150.601 53.696 150.057 51.312 150.057 48.656ZM171.705 48.752C171.705 46.928 171.321 45.344 170.553 44C169.817 42.656 168.841 41.632 167.625 40.928C166.409 40.224 165.097 39.872 163.689 39.872C162.281 39.872 160.969 40.224 159.753 40.928C158.537 41.6 157.545 42.608 156.777 43.952C156.041 45.264 155.673 46.832 155.673 48.656C155.673 50.48 156.041 52.08 156.777 53.456C157.545 54.832 158.537 55.888 159.753 56.624C161.001 57.328 162.313 57.68 163.689 57.68C165.097 57.68 166.409 57.328 167.625 56.624C168.841 55.92 169.817 54.896 170.553 53.552C171.321 52.176 171.705 50.576 171.705 48.752ZM194.637 57.104L202.125 35.552H207.932L197.853 62H191.325L181.293 35.552H187.148L194.637 57.104ZM236.309 48.128C236.309 49.12 236.245 50.016 236.117 50.816H215.909C216.069 52.928 216.853 54.624 218.261 55.904C219.669 57.184 221.397 57.824 223.445 57.824C226.389 57.824 228.469 56.592 229.685 54.128H235.589C234.789 56.56 233.333 58.56 231.221 60.128C229.141 61.664 226.549 62.432 223.445 62.432C220.917 62.432 218.645 61.872 216.629 60.752C214.645 59.6 213.077 58 211.925 55.952C210.805 53.872 210.245 51.472 210.245 48.752C210.245 46.032 210.789 43.648 211.877 41.6C212.997 39.52 214.549 37.92 216.533 36.8C218.549 35.68 220.853 35.12 223.445 35.12C225.941 35.12 228.165 35.664 230.117 36.752C232.069 37.84 233.589 39.376 234.677 41.36C235.765 43.312 236.309 45.568 236.309 48.128ZM230.597 46.4C230.565 44.384 229.845 42.768 228.437 41.552C227.029 40.336 225.285 39.728 223.205 39.728C221.317 39.728 219.701 40.336 218.357 41.552C217.013 42.736 216.213 44.352 215.957 46.4H230.597ZM247.166 26.48V62H241.694V26.48H247.166Z" fill="url(#paint0_linear_302_4)"/>
<path d="M25.152 28.64V33.104H16.272V62H10.8V33.104H1.872V28.64H25.152ZM36.1658 39.392C36.9658 38.048 38.0218 37.008 39.3338 36.272C40.6778 35.504 42.2618 35.12 44.0858 35.12V40.784H42.6938C40.5498 40.784 38.9178 41.328 37.7978 42.416C36.7098 43.504 36.1658 45.392 36.1658 48.08V62H30.6938V35.552H36.1658V39.392ZM60.4436 48.608L68.9876 62H62.7956L57.0836 53.024L51.7076 62H45.9956L54.5396 48.992L45.9956 35.552H52.1876L57.8996 44.528L63.2756 35.552H68.9876L60.4436 48.608Z" fill="url(#paint1_linear_302_4)"/>
<path d="M88.0579 57.4102L107.199 29.6992C108.346 27.9761 108.579 24.3293 106.7 23.0208C104.883 21.8406 101.609 23.552 100.462 25.275L82.8888 53.9706L88.0579 57.4102Z" fill="url(#paint2_linear_302_4)"/>
<path d="M95.4746 36.2872C94.4615 36.1395 75.5717 34.4205 75.5717 34.4205L71.4973 39.5766L89.992 45.098L95.4746 36.2872Z" fill="url(#paint3_linear_302_4)"/>
<path d="M100.049 39.3017C100.604 40.1386 109.823 56.7431 109.823 56.7431L106.687 62.5535L94.1611 47.7549L100.049 39.3017Z" fill="url(#paint4_linear_302_4)"/>
<path d="M82.8214 61.9397C82.6257 62.1897 82.2746 62.2778 82.0246 62.0822C81.7746 61.8866 81.6865 61.5355 81.7875 61.2518L87.2636 52.7584C87.4593 52.5084 87.8103 52.4203 88.0604 52.6159C88.3104 52.8115 88.3985 53.1626 88.2974 53.4463L82.8214 61.9397Z" fill="url(#paint5_linear_302_4)"/>
<path d="M88.0058 52.17C87.621 52.3527 78.9321 54.9061 78.9321 54.9061L76.0858 59.0077L83.8045 58.8794L88.0058 52.17Z" fill="url(#paint6_linear_302_4)"/>
<path d="M88.2766 52.9059C88.2365 53.3179 89.3856 62.3593 89.3856 62.3593L86.7894 66.6565L83.7916 59.5143L88.2766 52.9059Z" fill="url(#paint7_linear_302_4)"/>
<rect x="91" y="45.5216" width="2.06856" height="2.06856" rx="1" transform="rotate(-47.3638 91 45.5216)" fill="url(#paint8_linear_302_4)"/>
<rect x="95" y="39.5216" width="2.06856" height="2.06856" rx="1" transform="rotate(-47.3638 95 39.5216)" fill="url(#paint9_linear_302_4)"/>
<rect x="93" y="42.5216" width="2.06856" height="2.06856" rx="1" transform="rotate(-47.3638 93 42.5216)" fill="url(#paint10_linear_302_4)"/>
<defs>
<linearGradient id="paint0_linear_302_4" x1="181.5" y1="9" x2="181.5" y2="81" gradientUnits="userSpaceOnUse">
<stop stop-color="#E4F1FA"/>
<stop offset="0.5" stop-color="#86BADF"/>
<stop offset="0.652777" stop-color="#BAE2FF"/>
<stop offset="1" stop-color="#949494"/>
</linearGradient>
<linearGradient id="paint1_linear_302_4" x1="35" y1="9" x2="35" y2="81" gradientUnits="userSpaceOnUse">
<stop stop-color="#E4F1FA"/>
<stop offset="0.5" stop-color="#86BADF"/>
<stop offset="0.652777" stop-color="#BAE2FF"/>
<stop offset="1" stop-color="#949494"/>
</linearGradient>
<linearGradient id="paint2_linear_302_4" x1="102.899" y1="42.1494" x2="88.8777" y2="37.1554" gradientUnits="userSpaceOnUse">
<stop stop-color="white"/>
<stop offset="1" stop-color="white" stop-opacity="0.67"/>
</linearGradient>
<linearGradient id="paint3_linear_302_4" x1="93.6052" y1="41.536" x2="73.3667" y2="34.3278" gradientUnits="userSpaceOnUse">
<stop stop-color="white"/>
<stop offset="1" stop-color="white" stop-opacity="0.67"/>
</linearGradient>
<linearGradient id="paint4_linear_302_4" x1="110.934" y1="53.6222" x2="94.1947" y2="47.6603" gradientUnits="userSpaceOnUse">
<stop stop-color="white"/>
<stop offset="1" stop-color="white" stop-opacity="0.67"/>
</linearGradient>
<linearGradient id="paint5_linear_302_4" x1="86.6975" y1="57.9385" x2="83.3875" y2="56.7596" gradientUnits="userSpaceOnUse">
<stop stop-color="white"/>
<stop offset="1" stop-color="white" stop-opacity="0.67"/>
</linearGradient>
<linearGradient id="paint6_linear_302_4" x1="86.2543" y1="57.0877" x2="77.8373" y2="54.09" gradientUnits="userSpaceOnUse">
<stop stop-color="white"/>
<stop offset="1" stop-color="white" stop-opacity="0.67"/>
</linearGradient>
<linearGradient id="paint7_linear_302_4" x1="89.9919" y1="60.657" x2="84.1284" y2="58.5686" gradientUnits="userSpaceOnUse">
<stop stop-color="white"/>
<stop offset="1" stop-color="white" stop-opacity="0.67"/>
</linearGradient>
<linearGradient id="paint8_linear_302_4" x1="92.0343" y1="45.5216" x2="92.0343" y2="47.5902" gradientUnits="userSpaceOnUse">
<stop stop-color="#0094FF"/>
<stop offset="1" stop-color="#6B6B6B" stop-opacity="0.86"/>
</linearGradient>
<linearGradient id="paint9_linear_302_4" x1="96.0343" y1="39.5216" x2="96.0343" y2="41.5902" gradientUnits="userSpaceOnUse">
<stop stop-color="#0094FF"/>
<stop offset="1" stop-color="#6B6B6B" stop-opacity="0.86"/>
</linearGradient>
<linearGradient id="paint10_linear_302_4" x1="94.0343" y1="42.5216" x2="94.0343" y2="44.5902" gradientUnits="userSpaceOnUse">
<stop stop-color="#0094FF"/>
<stop offset="1" stop-color="#6B6B6B" stop-opacity="0.86"/>
</linearGradient>
</defs>
</svg>
