<svg width="314" height="146" viewBox="0 0 314 146" fill="none" xmlns="http://www.w3.org/2000/svg">
<g filter="url(#filter0_d_503_4)">
<path d="M38.68 28.35V34.86H25.73V77H17.75V34.86H4.73V28.35H38.68ZM54.7417 44.03C55.9084 42.07 57.4484 40.5533 59.3617 39.48C61.3217 38.36 63.6317 37.8 66.2917 37.8V46.06H64.2617C61.1351 46.06 58.7551 46.8533 57.1217 48.44C55.5351 50.0267 54.7417 52.78 54.7417 56.7V77H46.7617V38.43H54.7417V44.03ZM70.967 57.54C70.967 53.6667 71.7603 50.2367 73.347 47.25C74.9803 44.2633 77.1736 41.9533 79.927 40.32C82.727 38.64 85.807 37.8 89.167 37.8C92.2003 37.8 94.837 38.4067 97.077 39.62C99.3636 40.7867 101.184 42.2567 102.537 44.03V38.43H110.587V77H102.537V71.26C101.184 73.08 99.3403 74.5967 97.007 75.81C94.6736 77.0233 92.0136 77.63 89.027 77.63C85.7136 77.63 82.6803 76.79 79.927 75.11C77.1736 73.3833 74.9803 71.0033 73.347 67.97C71.7603 64.89 70.967 61.4133 70.967 57.54ZM102.537 57.68C102.537 55.02 101.977 52.71 100.857 50.75C99.7836 48.79 98.3603 47.2967 96.587 46.27C94.8136 45.2433 92.9003 44.73 90.847 44.73C88.7936 44.73 86.8803 45.2433 85.107 46.27C83.3336 47.25 81.887 48.72 80.767 50.68C79.6936 52.5933 79.157 54.88 79.157 57.54C79.157 60.2 79.6936 62.5333 80.767 64.54C81.887 66.5467 83.3336 68.0867 85.107 69.16C86.927 70.1867 88.8403 70.7 90.847 70.7C92.9003 70.7 94.8136 70.1867 96.587 69.16C98.3603 68.1333 99.7836 66.64 100.857 64.68C101.977 62.6733 102.537 60.34 102.537 57.68ZM135.978 69.86L146.898 38.43H155.368L140.668 77H131.148L116.518 38.43H125.058L135.978 69.86ZM196.75 56.77C196.75 58.2167 196.657 59.5233 196.47 60.69H167C167.234 63.77 168.377 66.2433 170.43 68.11C172.484 69.9767 175.004 70.91 177.99 70.91C182.284 70.91 185.317 69.1133 187.09 65.52H195.7C194.534 69.0667 192.41 71.9833 189.33 74.27C186.297 76.51 182.517 77.63 177.99 77.63C174.304 77.63 170.99 76.8133 168.05 75.18C165.157 73.5 162.87 71.1667 161.19 68.18C159.557 65.1467 158.74 61.6467 158.74 57.68C158.74 53.7133 159.534 50.2367 161.12 47.25C162.754 44.2167 165.017 41.8833 167.91 40.25C170.85 38.6167 174.21 37.8 177.99 37.8C181.63 37.8 184.874 38.5933 187.72 40.18C190.567 41.7667 192.784 44.0067 194.37 46.9C195.957 49.7467 196.75 53.0367 196.75 56.77ZM188.42 54.25C188.374 51.31 187.324 48.9533 185.27 47.18C183.217 45.4067 180.674 44.52 177.64 44.52C174.887 44.52 172.53 45.4067 170.57 47.18C168.61 48.9067 167.444 51.2633 167.07 54.25H188.42ZM212.584 25.2V77H204.604V25.2H212.584Z" fill="url(#paint0_linear_503_4)" shape-rendering="crispEdges"/>
</g>
<g filter="url(#filter1_di_503_4)">
<path d="M240.94 62.7576L293.164 50.3915C296.36 49.576 300.527 45.5092 299.701 41.9561C298.809 38.6198 293.109 37.1514 289.913 37.9669L238.494 53.171L240.94 62.7576Z" fill="url(#paint1_linear_503_4)"/>
<path d="M272.259 45.6758C271.218 44.4199 250.698 22.2268 250.698 22.2268L240.374 23.9805L256.368 50.2515L272.259 45.6758Z" fill="url(#paint2_linear_503_4)"/>
<path d="M274.455 54.1248C274.218 55.7069 267.408 85.1947 267.408 85.1947L257.497 88.7249L258.466 57.8447L274.455 54.1248Z" fill="url(#paint3_linear_503_4)"/>
<path d="M229.91 62.5294C229.411 62.6165 228.902 62.3461 228.815 61.8478C228.727 61.3495 228.998 60.84 229.42 60.6121L244.964 56.405C245.463 56.3179 245.972 56.5883 246.059 57.0866C246.147 57.585 245.876 58.0945 245.454 58.3224L229.91 62.5294Z" fill="url(#paint4_linear_503_4)"/>
<path d="M246.471 56.501C245.82 56.3065 232.813 50.0557 232.813 50.0557L225.068 51.872L234.339 59.9574L246.471 56.501Z" fill="url(#paint5_linear_503_4)"/>
<path d="M246.006 57.6608C245.519 58.1055 237.23 70.0313 237.23 70.0313L229.572 72.346L233.646 60.6948L246.006 57.6608Z" fill="url(#paint6_linear_503_4)"/>
<rect x="264.04" y="50.7857" width="3.29626" height="3.29626" rx="1" transform="rotate(-5.31995 264.04 50.7857)" fill="url(#paint7_linear_503_4)"/>
<rect x="258" y="52.3056" width="3.29626" height="3.29626" rx="1" transform="rotate(-5.31995 258 52.3056)" fill="url(#paint8_linear_503_4)"/>
<rect x="269.059" y="49.3818" width="3.29626" height="3.29626" rx="1" transform="rotate(-5.31995 269.059 49.3818)" fill="url(#paint9_linear_503_4)"/>
</g>
<defs>
<filter id="filter0_d_503_4" x="0.72998" y="25.2" width="215.854" height="60.43" filterUnits="userSpaceOnUse" color-interpolation-filters="sRGB">
<feFlood flood-opacity="0" result="BackgroundImageFix"/>
<feColorMatrix in="SourceAlpha" type="matrix" values="0 0 0 0 0 0 0 0 0 0 0 0 0 0 0 0 0 0 127 0" result="hardAlpha"/>
<feOffset dy="4"/>
<feGaussianBlur stdDeviation="2"/>
<feComposite in2="hardAlpha" operator="out"/>
<feColorMatrix type="matrix" values="0 0 0 0 0 0 0 0 0 0 0 0 0 0 0 0 0 0 0.75 0"/>
<feBlend mode="normal" in2="BackgroundImageFix" result="effect1_dropShadow_503_4"/>
<feBlend mode="normal" in="SourceGraphic" in2="effect1_dropShadow_503_4" result="shape"/>
</filter>
<filter id="filter1_di_503_4" x="221.068" y="22.2268" width="82.7393" height="74.4981" filterUnits="userSpaceOnUse" color-interpolation-filters="sRGB">
<feFlood flood-opacity="0" result="BackgroundImageFix"/>
<feColorMatrix in="SourceAlpha" type="matrix" values="0 0 0 0 0 0 0 0 0 0 0 0 0 0 0 0 0 0 127 0" result="hardAlpha"/>
<feOffset dy="4"/>
<feGaussianBlur stdDeviation="2"/>
<feComposite in2="hardAlpha" operator="out"/>
<feColorMatrix type="matrix" values="0 0 0 0 0 0 0 0 0 0 0 0 0 0 0 0 0 0 0.5 0"/>
<feBlend mode="normal" in2="BackgroundImageFix" result="effect1_dropShadow_503_4"/>
<feBlend mode="normal" in="SourceGraphic" in2="effect1_dropShadow_503_4" result="shape"/>
<feColorMatrix in="SourceAlpha" type="matrix" values="0 0 0 0 0 0 0 0 0 0 0 0 0 0 0 0 0 0 127 0" result="hardAlpha"/>
<feOffset dy="4"/>
<feGaussianBlur stdDeviation="2"/>
<feComposite in2="hardAlpha" operator="arithmetic" k2="-1" k3="1"/>
<feColorMatrix type="matrix" values="0 0 0 0 0 0 0 0 0 0 0 0 0 0 0 0 0 0 0.2 0"/>
<feBlend mode="normal" in2="shape" result="effect2_innerShadow_503_4"/>
</filter>
<linearGradient id="paint0_linear_503_4" x1="157.5" y1="0" x2="157.5" y2="146" gradientUnits="userSpaceOnUse">
<stop stop-color="white"/>
<stop offset="1" stop-color="white" stop-opacity="0"/>
</linearGradient>
<linearGradient id="paint1_linear_503_4" x1="274.789" y1="60.5366" x2="263.526" y2="39.6632" gradientUnits="userSpaceOnUse">
<stop stop-color="white"/>
<stop offset="1" stop-color="white" stop-opacity="0.67"/>
</linearGradient>
<linearGradient id="paint2_linear_503_4" x1="264.445" y1="49.8921" x2="248.188" y2="19.7641" gradientUnits="userSpaceOnUse">
<stop stop-color="white"/>
<stop offset="1" stop-color="white" stop-opacity="0.67"/>
</linearGradient>
<linearGradient id="paint3_linear_503_4" x1="272.054" y1="82.6877" x2="258.607" y2="57.7687" gradientUnits="userSpaceOnUse">
<stop stop-color="white"/>
<stop offset="1" stop-color="white" stop-opacity="0.67"/>
</linearGradient>
<linearGradient id="paint4_linear_503_4" x1="238.766" y1="61.931" x2="236.108" y2="57.0035" gradientUnits="userSpaceOnUse">
<stop stop-color="white"/>
<stop offset="1" stop-color="white" stop-opacity="0.67"/>
</linearGradient>
<linearGradient id="paint5_linear_503_4" x1="239.15" y1="60.4514" x2="232.389" y2="47.9216" gradientUnits="userSpaceOnUse">
<stop stop-color="white"/>
<stop offset="1" stop-color="white" stop-opacity="0.67"/>
</linearGradient>
<linearGradient id="paint6_linear_503_4" x1="239.764" y1="68.6638" x2="235.054" y2="59.9351" gradientUnits="userSpaceOnUse">
<stop stop-color="white"/>
<stop offset="1" stop-color="white" stop-opacity="0.67"/>
</linearGradient>
<linearGradient id="paint7_linear_503_4" x1="265.688" y1="50.7857" x2="265.688" y2="54.082" gradientUnits="userSpaceOnUse">
<stop stop-color="#00C2FF"/>
<stop offset="1" stop-color="#3E3FD8"/>
</linearGradient>
<linearGradient id="paint8_linear_503_4" x1="259.648" y1="52.3056" x2="259.648" y2="55.6019" gradientUnits="userSpaceOnUse">
<stop stop-color="#00C2FF"/>
<stop offset="1" stop-color="#3E3FD8"/>
</linearGradient>
<linearGradient id="paint9_linear_503_4" x1="270.707" y1="49.3818" x2="270.707" y2="52.6781" gradientUnits="userSpaceOnUse">
<stop stop-color="#00C2FF"/>
<stop offset="1" stop-color="#3E3FD8"/>
</linearGradient>
</defs>
</svg>
